{"accessors" : [{"bufferView" : 0, "byteOffset" : 0, "componentType" : 5123, "count" : 4920, "type" : "SCALAR", "max" : [4126], "min" : [0]}, {"bufferView" : 1, "byteOffset" : 0, "componentType" : 5126, "count" : 4127, "type" : "VEC3", "max" : [600, 400, 350], "min" : [0, 0, 0], "name" : "POSITION"}, {"bufferView" : 1, "byteOffset" : 12, "componentType" : 5126, "count" : 4127, "type" : "VEC2", "max" : [93.58861541748047, 94.12684631347656], "min" : [-29.5, -78.21405792236328], "name" : "TEXCOORD_0"}, {"bufferView" : 1, "byteOffset" : 20, "componentType" : 5126, "count" : 4127, "type" : "VEC3", "max" : [1.0000044107437134, 1.0000044107437134, 1.0000044107437134], "min" : [-1.0000044107437134, -1.0000044107437134, -1.0000044107437134], "name" : "NORMAL"}, {"bufferView" : 0, "byteOffset" : 9840, "componentType" : 5123, "count" : 5790, "type" : "SCALAR", "max" : [4772], "min" : [0]}, {"bufferView" : 2, "byteOffset" : 0, "componentType" : 5126, "count" : 4773, "type" : "VEC3", "max" : [455.01226806640625, 350, 350], "min" : [45.17496871948242, 44.5054931640625, 150], "name" : "POSITION"}, {"bufferView" : 2, "byteOffset" : 12, "componentType" : 5126, "count" : 4773, "type" : "VEC2", "max" : [93.63884735107422, 15.03792953491211], "min" : [-20.50122833251953, -80.90104675292969], "name" : "TEXCOORD_0"}, {"bufferView" : 2, "byteOffset" : 20, "componentType" : 5126, "count" : 4773, "type" : "VEC3", "max" : [1.000000238418579, 1.0000044107437134, 1.0000044107437134], "min" : [-0.9999821782112122, -1.0000016689300537, -1.0000044107437134], "name" : "NORMAL"}, {"bufferView" : 0, "byteOffset" : 21420, "componentType" : 5123, "count" : 3732, "type" : "SCALAR", "max" : [3136], "min" : [0]}, {"bufferView" : 3, "byteOffset" : 0, "componentType" : 5126, "count" : 3137, "type" : "VEC3", "max" : [160, 972.5, 300], "min" : [40, 400, 180], "name" : "POSITION"}, {"bufferView" : 3, "byteOffset" : 12, "componentType" : 5126, "count" : 3137, "type" : "VEC2", "max" : [14, 18.84955596923828], "min" : [-14.87600040435791, -18.84955596923828], "name" : "TEXCOORD_0"}, {"bufferView" : 3, "byteOffset" : 20, "componentType" : 5126, "count" : 3137, "type" : "VEC3", "max" : [1.0000044107437134, 1.0000044107437134, 1.0000044107437134], "min" : [-1.0000044107437134, -1.0000044107437134, -1.0000044107437134], "name" : "NORMAL"}, {"bufferView" : 0, "byteOffset" : 28884, "componentType" : 5123, "count" : 3036, "type" : "SCALAR", "max" : [2574], "min" : [0]}, {"bufferView" : 4, "byteOffset" : 0, "componentType" : 5126, "count" : 2575, "type" : "VEC3", "max" : [570, 330, 375], "min" : [490, 70, 350], "name" : "POSITION"}, {"bufferView" : 4, "byteOffset" : 12, "componentType" : 5126, "count" : 2575, "type" : "VEC2", "max" : [13, 13], "min" : [-13, -13], "name" : "TEXCOORD_0"}, {"bufferView" : 4, "byteOffset" : 20, "componentType" : 5126, "count" : 2575, "type" : "VEC3", "max" : [1.0000044107437134, 1.0000044107437134, 1.0000044107437134], "min" : [-1.0000044107437134, -1.0000044107437134, -1.0000044107437134], "name" : "NORMAL"}, {"bufferView" : 0, "byteOffset" : 34956, "componentType" : 5123, "count" : 2268, "type" : "SCALAR", "max" : [1892], "min" : [0]}, {"bufferView" : 5, "byteOffset" : 0, "componentType" : 5126, "count" : 1893, "type" : "VEC3", "max" : [554.5807495117188, 309.150634765625, 366.32330322265625], "min" : [504.7205505371094, 259.150634765625, 355], "name" : "POSITION"}, {"bufferView" : 5, "byteOffset" : 12, "componentType" : 5126, "count" : 1893, "type" : "VEC2", "max" : [2.5, 7.068583011627197], "min" : [-2.5, -7.072864055633545], "name" : "TEXCOORD_0"}, {"bufferView" : 5, "byteOffset" : 20, "componentType" : 5126, "count" : 1893, "type" : "VEC3", "max" : [0.8736448884010315, 0.9659301042556763, 1.0000044107437134], "min" : [-0.9659301042556763, -0.8660303950309753, -1.0000044107437134], "name" : "NORMAL"}, {"bufferView" : 0, "byteOffset" : 39492, "componentType" : 5123, "count" : 2268, "type" : "SCALAR", "max" : [1892], "min" : [0]}, {"bufferView" : 6, "byteOffset" : 0, "componentType" : 5126, "count" : 1893, "type" : "VEC3", "max" : [555.72119140625, 252.04368591308594, 366.32330322265625], "min" : [505.72509765625, 202.1407928466797, 355], "name" : "POSITION"}, {"bufferView" : 6, "byteOffset" : 12, "componentType" : 5126, "count" : 1893, "type" : "VEC2", "max" : [2.5, 7.068583011627197], "min" : [-2.5, -7.072864055633545], "name" : "TEXCOORD_0"}, {"bufferView" : 6, "byteOffset" : 20, "componentType" : 5126, "count" : 1893, "type" : "VEC3", "max" : [0.9396965503692627, 0.941142201423645, 1.0000044107437134], "min" : [-0.9101147055625916, -0.9063115119934082, -1.0000044107437134], "name" : "NORMAL"}, {"bufferView" : 0, "byteOffset" : 44028, "componentType" : 5123, "count" : 2484, "type" : "SCALAR", "max" : [2063], "min" : [0]}, {"bufferView" : 7, "byteOffset" : 0, "componentType" : 5126, "count" : 2064, "type" : "VEC3", "max" : [523, 121, 364.5], "min" : [516, 114, 347.5], "name" : "POSITION"}, {"bufferView" : 7, "byteOffset" : 12, "componentType" : 5126, "count" : 2064, "type" : "VEC2", "max" : [0.5, 0.25099998712539673], "min" : [-0.5, -0.25099998712539673], "name" : "TEXCOORD_0"}, {"bufferView" : 7, "byteOffset" : 20, "componentType" : 5126, "count" : 2064, "type" : "VEC3", "max" : [1.0000044107437134, 1.0000044107437134, 1.0000044107437134], "min" : [-1.0000044107437134, -1.0000044107437134, -1.0000044107437134], "name" : "NORMAL"}, {"bufferView" : 0, "byteOffset" : 48996, "componentType" : 5123, "count" : 2484, "type" : "SCALAR", "max" : [2063], "min" : [0]}, {"bufferView" : 8, "byteOffset" : 0, "componentType" : 5126, "count" : 2064, "type" : "VEC3", "max" : [542.22998046875, 106, 364.5], "min" : [535.22998046875, 99, 347.5], "name" : "POSITION"}, {"bufferView" : 8, "byteOffset" : 12, "componentType" : 5126, "count" : 2064, "type" : "VEC2", "max" : [0.5, 0.25099998712539673], "min" : [-0.5, -0.25099998712539673], "name" : "TEXCOORD_0"}, {"bufferView" : 8, "byteOffset" : 20, "componentType" : 5126, "count" : 2064, "type" : "VEC3", "max" : [1.0000044107437134, 1.0000044107437134, 1.0000044107437134], "min" : [-1.0000044107437134, -1.0000044107437134, -1.0000044107437134], "name" : "NORMAL"}], "asset" : {"generator" : "Aspose.3D 22.1", "version" : "2.0"}, "buffers" : [{"uri" : "data:application/octet-stream;base64,", "byteLength" : 917424}], "bufferViews" : [{"buffer" : 0, "byteOffset" : 0, "byteLength" : 53964, "target" : 34963}, {"buffer" : 0, "byteOffset" : 53968, "byteLength" : 157440, "byteStride" : 32, "target" : 34962}, {"buffer" : 0, "byteOffset" : 211412, "byteLength" : 185280, "byteStride" : 32, "target" : 34962}, {"buffer" : 0, "byteOffset" : 396696, "byteLength" : 119424, "byteStride" : 32, "target" : 34962}, {"buffer" : 0, "byteOffset" : 516124, "byteLength" : 97152, "byteStride" : 32, "target" : 34962}, {"buffer" : 0, "byteOffset" : 613280, "byteLength" : 72576, "byteStride" : 32, "target" : 34962}, {"buffer" : 0, "byteOffset" : 685860, "byteLength" : 72576, "byteStride" : 32, "target" : 34962}, {"buffer" : 0, "byteOffset" : 758440, "byteLength" : 79488, "byteStride" : 32, "target" : 34962}, {"buffer" : 0, "byteOffset" : 837932, "byteLength" : 79488, "byteStride" : 32, "target" : 34962}], "meshes" : [{"primitives" : [{"attributes" : {"POSITION" : 1, "TEXCOORD_0" : 2, "NORMAL" : 3}, "indices" : 0, "mode" : 4}], "name" : ""}, {"primitives" : [{"attributes" : {"POSITION" : 5, "TEXCOORD_0" : 6, "NORMAL" : 7}, "indices" : 4, "mode" : 4}], "name" : ""}, {"primitives" : [{"attributes" : {"POSITION" : 9, "TEXCOORD_0" : 10, "NORMAL" : 11}, "indices" : 8, "mode" : 4}], "name" : ""}, {"primitives" : [{"attributes" : {"POSITION" : 13, "TEXCOORD_0" : 14, "NORMAL" : 15}, "indices" : 12, "mode" : 4}], "name" : ""}, {"primitives" : [{"attributes" : {"POSITION" : 17, "TEXCOORD_0" : 18, "NORMAL" : 19}, "indices" : 16, "mode" : 4}], "name" : ""}, {"primitives" : [{"attributes" : {"POSITION" : 21, "TEXCOORD_0" : 22, "NORMAL" : 23}, "indices" : 20, "mode" : 4}], "name" : ""}, {"primitives" : [{"attributes" : {"POSITION" : 25, "TEXCOORD_0" : 26, "NORMAL" : 27}, "indices" : 24, "mode" : 4}], "name" : ""}, {"primitives" : [{"attributes" : {"POSITION" : 29, "TEXCOORD_0" : 30, "NORMAL" : 31}, "indices" : 28, "mode" : 4}], "name" : ""}], "nodes" : [{"mesh" : 0, "name" : "body"}, {"mesh" : 1, "name" : "crt"}, {"mesh" : 2, "name" : "antenna"}, {"mesh" : 3, "name" : "plank"}, {"mesh" : 4, "name" : "pin1"}, {"mesh" : 5, "name" : "pin2"}, {"mesh" : 6, "name" : "sldr1"}, {"mesh" : 7, "name" : "sldr2"}], "scene" : 0, "scenes" : [{"nodes" : [0, 1, 2, 3, 4, 5, 6, 7]}]}